<svg xmlns="http://www.w3.org/2000/svg" viewBox="0 0 500 500" width="500" height="500" class="illustration"><g id="Layer_10" data-name="Layer 10"><path d="M159.74,134.85h50.58S196,268,413,252.19l-8.17,35.24H182.23L155.68,137.3Z" fill="#3fe2fd"></path><path d="M226,388.16a19.32,19.32,0,0,1,11.65-17.73,19.32,19.32,0,1,0,0,35.45A19.3,19.3,0,0,1,226,388.16Z" fill="#3fe2fd"></path><path d="M339.56,388.16a19.31,19.31,0,0,1,11.66-17.73,19.32,19.32,0,1,0,0,35.45A19.3,19.3,0,0,1,339.56,388.16Z" fill="#3fe2fd"></path></g><g id="Layer_3" data-name="Layer 3"><path d="M442.69,123.59a6.9,6.9,0,0,0-5.33-2.53H157l-7-34.71a6.9,6.9,0,0,0-6.76-5.54H62.64a6.9,6.9,0,0,0,0,13.79h75l38.89,193.85v.05l10.27,49.33a6.89,6.89,0,0,0,6.75,5.49h194.4a6.89,6.89,0,1,0,0-13.78H199.13L191.73,294H405.12a6.89,6.89,0,0,0,6.75-5.52l32.24-159.14A6.89,6.89,0,0,0,442.69,123.59ZM399.48,280.2H188.9L159.74,134.85H428.93Z" fill="#251ac7"></path><path d="M233.93,357.13a31,31,0,1,0,31,31A31.07,31.07,0,0,0,233.93,357.13Zm0,48.27a17.24,17.24,0,1,1,17.24-17.24A17.25,17.25,0,0,1,233.93,405.4Z" fill="#251ac7"></path><path d="M349.48,357.13a31,31,0,1,0,31,31A31.07,31.07,0,0,0,349.48,357.13Zm0,48.27a17.24,17.24,0,1,1,17.24-17.24A17.25,17.25,0,0,1,349.48,405.4Z" fill="#251ac7"></path></g></svg>